<svg width="103" height="22" viewBox="0 0 103 22" fill="none" xmlns="http://www.w3.org/2000/svg">
<path d="M12.696 19.392C12.216 19.392 11.976 19.152 11.976 18.672L11.856 10.824H10.944C10.912 10.952 10.88 11.08 10.848 11.208C10.624 12.008 10.288 12.712 9.84 13.32C9.392 13.912 8.832 14.384 8.16 14.736C7.488 15.072 6.704 15.24 5.808 15.24C4.896 15.24 4.104 15.072 3.432 14.736C2.76 14.384 2.192 13.912 1.728 13.32C1.28 12.712 0.944 12.008 0.72 11.208C0.496 10.392 0.384 9.528 0.384 8.616C0.384 7.704 0.496 6.84 0.72 6.024C0.944 5.208 1.28 4.488 1.728 3.864C2.192 3.24 2.76 2.752 3.432 2.4C4.104 2.032 4.896 1.848 5.808 1.848C6.704 1.848 7.488 2.032 8.16 2.4C8.832 2.752 9.392 3.24 9.84 3.864C10.288 4.488 10.624 5.208 10.848 6.024C10.944 6.376 11.016 6.728 11.064 7.08H11.808L11.736 1.92C11.736 1.44 11.968 1.2 12.432 1.2H15.12C15.6 1.2 15.832 1.44 15.816 1.92L15.528 18.672C15.528 19.152 15.288 19.392 14.808 19.392H12.696ZM17.472 19.392C16.992 19.392 16.752 19.152 16.752 18.672V1.68C16.752 1.2 16.984 0.959999 17.448 0.959999H20.136C20.616 0.959999 20.848 1.2 20.832 1.68L20.304 18.672C20.304 19.152 20.064 19.392 19.584 19.392H17.472ZM7.776 7.92C7.776 7.856 7.776 7.8 7.776 7.752C7.76 7.64 7.744 7.528 7.728 7.416C7.648 7.048 7.528 6.728 7.368 6.456C7.224 6.184 7.04 5.976 6.816 5.832C6.592 5.672 6.336 5.592 6.048 5.592C5.424 5.592 4.96 5.88 4.656 6.456C4.368 7.032 4.224 7.752 4.224 8.616C4.224 9.48 4.376 10.2 4.68 10.776C5 11.336 5.456 11.616 6.048 11.616C6.624 11.616 7.064 11.336 7.368 10.776C7.56 10.424 7.696 10.032 7.776 9.6V7.92ZM25.6118 13.2C25.0678 13.2 24.6918 13.096 24.4838 12.888C24.2918 12.68 24.1878 12.304 24.1718 11.76L24.0038 1.752C23.9718 1.272 24.2038 1.032 24.6998 1.032H27.4598C27.6998 1.032 27.8678 1.096 27.9638 1.224C28.0758 1.336 28.1398 1.512 28.1558 1.752V4.032L34.9238 4.008V1.704C34.9398 1.224 35.1718 0.983999 35.6198 0.983999H38.3078C38.7878 0.983999 39.0198 1.224 39.0038 1.704L38.8358 11.664C38.8358 12.208 38.7318 12.584 38.5238 12.792C38.3318 12.984 37.9638 13.088 37.4198 13.104L25.6118 13.2ZM28.2038 9.744L34.9718 9.72L34.9478 7.344L28.1797 7.392L28.2038 9.744ZM23.2838 19.152C23.0598 19.168 22.8838 19.104 22.7558 18.96C22.6278 18.832 22.5638 18.656 22.5638 18.432V16.344C22.5638 16.12 22.6278 15.944 22.7558 15.816C22.8838 15.688 23.0598 15.624 23.2838 15.624L39.7478 15.576C39.9718 15.576 40.1478 15.64 40.2758 15.768C40.4038 15.896 40.4678 16.072 40.4678 16.296V18.12C40.4678 18.344 40.4038 18.512 40.2758 18.624C40.1478 18.752 39.9718 18.824 39.7478 18.84L23.2838 19.152ZM57.2117 19.392C56.7317 19.392 56.4917 19.152 56.4917 18.672V1.68C56.4917 1.2 56.7237 0.959999 57.1877 0.959999H60.1157C60.5957 0.959999 60.8277 1.2 60.8117 1.68L60.2837 18.672C60.2837 19.152 60.0437 19.392 59.5637 19.392H57.2117ZM47.0357 13.392C48.1077 13.424 49.2197 13.4 50.3717 13.32C51.5397 13.224 52.6677 13.08 53.7557 12.888C54.2197 12.808 54.4837 12.968 54.5477 13.368L54.9077 15.36C54.9717 15.808 54.8037 16.088 54.4037 16.2C53.7797 16.376 53.0597 16.528 52.2437 16.656C51.4277 16.784 50.5797 16.896 49.6997 16.992C48.8197 17.072 47.9317 17.136 47.0357 17.184C46.1397 17.216 45.2997 17.224 44.5157 17.208C43.3957 17.176 42.8357 16.624 42.8357 15.552V8.856C42.8357 8.296 42.9877 7.88 43.2917 7.608C43.5957 7.32 43.9957 7.176 44.4917 7.176L49.7237 7.152L49.7477 4.776H44.0357C43.7797 4.776 43.5717 4.704 43.4117 4.56C43.2677 4.4 43.1957 4.192 43.1957 3.936V2.064C43.1957 1.808 43.2677 1.608 43.4117 1.464C43.5717 1.304 43.7797 1.224 44.0357 1.224L52.3157 1.272C52.8117 1.272 53.2117 1.416 53.5157 1.704C53.8357 1.976 53.9877 2.392 53.9717 2.952L53.8517 9.048C53.8357 9.576 53.6917 9.984 53.4197 10.272C53.1477 10.56 52.7317 10.712 52.1717 10.728L47.0357 10.8V13.392ZM64.9129 12.72C64.3689 12.72 63.9929 12.616 63.7849 12.408C63.5929 12.2 63.4889 11.824 63.4729 11.28L63.1129 1.752C63.0809 1.272 63.3129 1.032 63.8089 1.032H66.1369C66.6009 1.032 66.8329 1.272 66.8329 1.752V3.792L69.2569 3.768V1.704C69.2569 1.224 69.4889 0.983999 69.9529 0.983999H72.2569C72.7209 0.983999 72.9529 1.224 72.9529 1.704L72.8809 5.352H74.3209L74.2489 1.2C74.2489 0.719999 74.4809 0.48 74.9449 0.48H77.5129C77.9929 0.48 78.2249 0.719999 78.2089 1.2L77.9209 14.232C77.9209 14.712 77.6809 14.952 77.2009 14.952H75.2089C74.7289 14.952 74.4889 14.712 74.4889 14.232L74.3689 8.712H72.8329L72.7849 11.184C72.7849 11.728 72.6809 12.104 72.4729 12.312C72.2809 12.504 71.9129 12.608 71.3689 12.624L64.9129 12.72ZM69.8329 21.648C69.2889 21.664 68.8729 21.528 68.5849 21.24C68.3129 20.952 68.1689 20.536 68.1529 19.992L68.0089 15C67.9769 14.52 68.2089 14.28 68.7049 14.28H71.3449C71.8089 14.28 72.0409 14.52 72.0409 15L71.9929 18.192L81.6409 18.288C82.1049 18.288 82.3369 18.496 82.3369 18.912V20.736C82.3369 21.232 82.1209 21.48 81.6889 21.48L69.8329 21.648ZM79.8889 14.952C79.4089 14.952 79.1689 14.712 79.1689 14.232V0.959999C79.1689 0.48 79.4009 0.24 79.8649 0.24H82.4329C82.9129 0.24 83.1449 0.48 83.1289 0.959999L82.6009 14.232C82.6009 14.712 82.3609 14.952 81.8809 14.952H79.8889ZM66.8809 9.408L69.3049 9.384L69.2809 6.96L66.8569 7.008L66.8809 9.408ZM88.1246 14.16C87.0046 14.16 86.4446 13.608 86.4446 12.504L86.3246 2.664C86.3086 2.104 86.4606 1.688 86.7806 1.416C87.1006 1.128 87.5086 0.983999 88.0046 0.983999L100.221 1.008C100.477 1.008 100.677 1.088 100.821 1.248C100.981 1.392 101.061 1.592 101.061 1.848V3.672C101.061 3.928 100.981 4.136 100.821 4.296C100.677 4.44 100.477 4.512 100.221 4.512H90.5006V5.904L99.9806 5.856C100.205 5.856 100.373 5.928 100.485 6.072C100.597 6.216 100.653 6.384 100.653 6.576V8.376C100.653 8.616 100.581 8.8 100.437 8.928C100.293 9.04 100.101 9.096 99.8606 9.096L90.5006 9.144V10.656L100.413 10.68C100.669 10.648 100.853 10.664 100.965 10.728C101.093 10.792 101.173 10.936 101.205 11.16V12.912C101.285 13.392 101.117 13.672 100.701 13.752L88.1246 14.16ZM85.5806 19.272C85.3566 19.288 85.1806 19.224 85.0526 19.08C84.9246 18.952 84.8606 18.776 84.8606 18.552V16.584C84.8606 16.36 84.9246 16.184 85.0526 16.056C85.1806 15.928 85.3566 15.864 85.5806 15.864L102.045 15.816C102.269 15.816 102.445 15.88 102.573 16.008C102.701 16.136 102.765 16.312 102.765 16.536V18.24C102.765 18.464 102.701 18.632 102.573 18.744C102.445 18.872 102.269 18.944 102.045 18.96L85.5806 19.272Z" fill="#75BDE0"/>
</svg>
